<svg id="Layer_1" data-name="Layer 1" xmlns="http://www.w3.org/2000/svg" xmlns:xlink="http://www.w3.org/1999/xlink" viewBox="0 0 176.78 158.59"><defs><style>.cls-1{fill:none;}.cls-2{clip-path:url(#clip-path);}</style><clipPath id="clip-path"><rect class="cls-1" width="176.78" height="158.59"/></clipPath></defs><g id="FAB_inv_square_black" data-name="FAB inv square black"><g class="cls-2"><polygon points="0 8.6 0 38.72 59.69 38.72 74.54 8.6 0 8.6"/><polygon points="0 69.51 0 98.98 30.02 98.98 44.55 69.51 0 69.51"/><polygon points="169.78 68.43 156.07 68.43 132.28 68.43 144.93 94.04 156.07 94.04 169.78 94.04 176.78 94.04 176.78 68.43 169.78 68.43"/><polygon points="141.85 8.6 123.58 8.6 102.77 8.6 116.82 37.01 141.85 37.01 156.07 37.01 169.78 37.01 176.78 37.01 176.78 8.6 141.85 8.6"/><polygon points="88.66 0 10.54 158.59 28.74 158.59 44.87 158.59 123.58 158.59 175.01 158.59 176.78 158.59 176.78 129.97 175.01 129.97 169.78 129.97 156.07 129.97 123.58 129.97 58.63 129.97 88.23 68.43 111.42 115.92 145.91 115.92 88.66 0"/></g></g></svg>