<svg id="Layer_1" data-name="Layer 1" xmlns="http://www.w3.org/2000/svg" viewBox="0 0 827 248"><path d="M1396.07-.48a71,71,0,0,1,63.85,70.58V176.89a71.25,71.25,0,0,1-50.55,68L1393,212.13a35.45,35.45,0,0,0,31.32-35.24V70.1a33,33,0,0,0-3.91-15.66L1393.12-.48h-26l17.67,35.34h-31.32V212.13H1367l17.8,35.59h-66.92V-.48H1282.3V187.21l-35.6-85.43V-.48h-67.88l103.48,248.2h-38.45L1140.37-.48h-35.7v248.2h-35.59V-.48h-26.7V34.86h-31.32L993.39-.48h-26l17.67,35.34H953.75V105.7h13.53l17.79,35.59H953.75V247.72H918.16V-.48H827V34.86H800L782.31-.48H756l17.67,35.34V247.72H738.4V34.86H685V-.48H666.14V176.89a71.25,71.25,0,0,1-50.54,68l-16.38-32.75a35.45,35.45,0,0,0,31.33-35.24V-.48H559.71V176.89a32.77,32.77,0,0,0,3.56,15.66L591,247.37a70.68,70.68,0,0,1-66.91-70.48V-.48H428.6A71,71,0,0,1,492.44,70.1V176.89a71.25,71.25,0,0,1-50.55,68l-16.37-32.75a35.44,35.44,0,0,0,31.32-35.24V70.1a32.65,32.65,0,0,0-3.56-15.66L425.65-.48H258.09A71,71,0,0,1,321.94,70.1c0,22.78-10.68,41.65-27.41,53.39,16.73,11.75,27.41,30.62,27.41,53.4a71.25,71.25,0,0,1-50.55,68L255,212.13a35.45,35.45,0,0,0,31.32-35.24,34.19,34.19,0,0,0-3.56-16L255,105.34A35.43,35.43,0,0,0,286.34,70.1a32.77,32.77,0,0,0-3.56-15.66L255.14-.48h-26l17.67,35.34H215.51V105.7H229l17.8,35.59H215.51v70.84H229l17.8,35.59H179.91V-.48H106.64L160,247.72H123.67L70.33-.48H-91v248.2h-35.59V141.29h-13.53l-17.8-35.59h31.33V-.48H-197.4V105.7h13.53l17.79,35.59H-197.4V247.72H-233V-.48H-487.27A71,71,0,0,1-423.42,70.1a70.78,70.78,0,0,1-32.75,59.8l-16-32A34.8,34.8,0,0,0-459,70.1a32.77,32.77,0,0,0-3.56-15.66L-490.22-.48h-26l17.67,35.34h-31.32V105.7h35.23l71.2,142h-39.87l-53-106.43h-13.52V247.72h-35.6V-.48h-33.1V34.86h-31.32L-647.55-.48h-26l17.67,35.34h-31.32V105.7h13.52l17.8,35.59h-31.32v70.84h13.52l17.8,35.59h-66.92V-.48h-35.59v248.2H-794V-.48H-906.35l54.72,139.28,34.17-87.56v89l-14.95,36.67h-38.44L-944.79-.48H-1036V34.86h-27L-1080.74-.48h-26.34l17.67,35.34V247.72h-35.24V34.86H-1178V-.48h-68.12a71,71,0,0,1,63.85,70.58,70.78,70.78,0,0,1-32.75,59.8l-16-32a34.8,34.8,0,0,0,13.17-27.77,32.77,32.77,0,0,0-3.56-15.66L-1249.11-.48h-26l17.67,35.34h-31.33V105.7h35.24l71.2,142h-39.87l-53-106.43h-13.53V247.72h-35.59V-.48h-73.27l53.34,248.2h-36.31L-1433.92-.48H-1652.3a71,71,0,0,1,63.84,70.58H-1624a32.77,32.77,0,0,0-3.56-15.66L-1655.25-.48h-156.87a71,71,0,0,1,63.84,70.58A70.78,70.78,0,0,1-1781,129.9l-16-32a34.83,34.83,0,0,0,13.17-27.77,32.77,32.77,0,0,0-3.56-15.66L-1815.07-.48h-26l17.67,35.34h-31.32V105.7h35.24l71.19,142h-39.87l-53-106.43h-13.53V247.72h-35.6V-.48h-33.09V34.86h-31.33L-1972.4-.48h-26l17.68,35.34H-2012V105.7h13.53l17.8,35.59H-2012v70.84h13.53l17.8,35.59h-66.92V-.48h-33.1V34.86h-31.33L-2129.73-.48h-26L-2138,34.86h-31.33V105.7h13.53l17.8,35.59h-31.33v70.84h13.53l17.8,35.59H-2205V-.48h-95.17a71,71,0,0,1,63.84,70.58c0,22.78-10.67,41.65-27.4,53.39,16.73,11.75,27.4,30.62,27.4,53.4a71.24,71.24,0,0,1-50.54,68l-16.38-32.75a35.45,35.45,0,0,0,31.33-35.24,34.19,34.19,0,0,0-3.56-16l-27.77-55.53a35.43,35.43,0,0,0,31.33-35.24,32.77,32.77,0,0,0-3.56-15.66L-2303.08-.48h-26l17.67,35.34h-31.33V105.7h13.53l17.8,35.59h-31.33v70.84h13.53l17.8,35.59h-66.92V-.48h-84.1v250h3999V-.48Zm-3476.8,248.2h-31.33l-17.79-35.59h49.12Zm0-106.43h-31.33l-17.79-35.59h49.12Zm157.33,106.43h-31.33l-17.8-35.59h49.13Zm0-106.43h-31.33l-17.8-35.59h49.13Zm192.92,35.6h35.59a32.77,32.77,0,0,0,3.56,15.66l27.77,54.82A70.68,70.68,0,0,1-1730.48,176.89Zm39.15-90.77,27.77,54.82a71,71,0,0,1-66.92-70.84,71.24,71.24,0,0,1,50.54-68l16.38,32.75a35.45,35.45,0,0,0-31.33,35.24A34.19,34.19,0,0,0-1691.33,86.12ZM-1639,244.88l-16.38-32.75A35.45,35.45,0,0,0-1624,176.89a34.19,34.19,0,0,0-3.56-16l-27.77-54.82a71,71,0,0,1,66.92,70.84A71.25,71.25,0,0,1-1639,244.88Zm182.6-50.55-11.39,53.39h-36.31l49.84-232.44,18.15,84.72-12.82,59.09h25.28l7.83,35.24Zm547.1,53.39h-35.59V59.78l35.59,85.07Zm310.75,0h-31.32l-17.8-35.59h49.12Zm0-106.43h-31.32l-17.8-35.59h49.12Zm236,51.26,27.41,55.17a70.69,70.69,0,0,1-66.57-70.83V70.46A71.68,71.68,0,0,1-351.17,2.11l16.37,32.75a35.79,35.79,0,0,0-31.32,35.6V176.89A32.77,32.77,0,0,0-362.56,192.55Zm52.33,52.33-16.38-32.75a35.45,35.45,0,0,0,31.33-35.24h35.59A71.25,71.25,0,0,1-310.23,244.88Zm15-174.42a34.19,34.19,0,0,0-3.56-16L-326.61-.38a71,71,0,0,1,66.92,70.84ZM47.85,194.33,36.46,247.72H.15L50,15.28,68.14,100,55.33,159.09H80.6l7.83,35.24Zm341.72-1.78L417,247.37a70.38,70.38,0,0,1-66.57-70.48V70.1A71.25,71.25,0,0,1,401,2.11l16.37,32.75A35.44,35.44,0,0,0,386,70.1V176.89A32.77,32.77,0,0,0,389.57,192.55Zm652.81-51.26h-31.32l-17.8-35.59h49.12Zm133.49,106.43h-35.6V59.78l35.6,85.43Z"/></svg>