<svg id="Layer_1" data-name="Layer 1" xmlns="http://www.w3.org/2000/svg" viewBox="0 0 790 250"><path d="M3774.07-.48a71,71,0,0,1,63.85,70.58V176.89a71.25,71.25,0,0,1-50.55,68L3771,212.13a35.45,35.45,0,0,0,31.32-35.24V70.1a33,33,0,0,0-3.91-15.66L3771.12-.48h-26l17.67,35.34h-31.32V212.13H3745l17.8,35.59h-66.92V-.48H3660.3V187.21l-35.6-85.43V-.48h-67.88l103.48,248.2h-38.45L3518.37-.48h-35.7v248.2h-35.59V-.48h-26.7V34.86h-31.32L3371.39-.48h-26l17.67,35.34h-31.32V105.7h13.53l17.79,35.59h-31.32V247.72h-35.59V-.48H3205V34.86H3178L3160.31-.48H3134l17.67,35.34V247.72H3116.4V34.86H3063V-.48h-18.87V176.89a71.25,71.25,0,0,1-50.54,68l-16.38-32.75a35.45,35.45,0,0,0,31.33-35.24V-.48h-70.84V176.89a32.77,32.77,0,0,0,3.56,15.66L2969,247.37a70.68,70.68,0,0,1-66.91-70.48V-.48H2806.6a71,71,0,0,1,63.84,70.58V176.89a71.25,71.25,0,0,1-50.55,68l-16.37-32.75a35.44,35.44,0,0,0,31.32-35.24V70.1a32.65,32.65,0,0,0-3.56-15.66L2803.65-.48H2636.09a71,71,0,0,1,63.85,70.58c0,22.78-10.68,41.65-27.41,53.39,16.73,11.75,27.41,30.62,27.41,53.4a71.25,71.25,0,0,1-50.55,68L2633,212.13a35.45,35.45,0,0,0,31.32-35.24,34.19,34.19,0,0,0-3.56-16L2633,105.34a35.43,35.43,0,0,0,31.32-35.24,32.77,32.77,0,0,0-3.56-15.66L2633.14-.48h-26l17.67,35.34h-31.32V105.7H2607l17.8,35.59h-31.32v70.84H2607l17.8,35.59h-66.92V-.48h-73.27L2538,247.72h-36.31L2448.33-.48H2287v248.2h-35.59V141.29h-13.53l-17.8-35.59h31.33V-.48H2180.6V105.7h13.53l17.79,35.59H2180.6V247.72H2145V-.48H1890.73a70.95,70.95,0,0,1,31.1,130.38l-16-32A34.8,34.8,0,0,0,1919,70.1a32.77,32.77,0,0,0-3.56-15.66L1887.78-.48h-26l17.67,35.34h-31.32V105.7h35.23l71.2,142h-39.87l-53-106.43h-13.52V247.72h-35.6V-.48h-33.1V34.86h-31.32L1730.45-.48h-26l17.67,35.34h-31.32V105.7h13.52l17.8,35.59h-31.32v70.84h13.52l17.8,35.59h-66.92V-.48h-35.59v248.2H1584V-.48H1471.65l54.72,139.28,34.17-87.56v89l-15,36.67h-38.44L1433.21-.48H1342V34.86h-27L1297.26-.48h-26.34l17.67,35.34V247.72h-35.24V34.86H1200V-.48h-68.12a70.95,70.95,0,0,1,31.1,130.38l-16-32a34.8,34.8,0,0,0,13.17-27.77,32.77,32.77,0,0,0-3.56-15.66L1128.89-.48h-26l17.67,35.34h-31.33V105.7h35.24l71.2,142h-39.87l-53-106.43h-13.53V247.72h-35.59V-.48H980.39l53.34,248.2H997.42L944.08-.48H725.7A71,71,0,0,1,789.54,70.1H754a32.77,32.77,0,0,0-3.56-15.66L722.75-.48H565.88A70.95,70.95,0,0,1,597,129.9l-16-32A34.83,34.83,0,0,0,594.13,70.1a32.77,32.77,0,0,0-3.56-15.66L562.93-.48h-26l17.67,35.34H523.29V105.7h35.24l71.19,142H589.85l-53-106.43H523.29V247.72h-35.6V-.48H454.6V34.86H423.27L405.6-.48h-26l17.68,35.34H366V105.7h13.53l17.8,35.59H366v70.84h13.53l17.8,35.59H330.37V-.48h-33.1V34.86H265.94L248.27-.48h-26L240,34.86H208.63V105.7h13.53L240,141.29H208.63v70.84h13.53L240,247.72H173V-.48H77.87A71,71,0,0,1,141.71,70.1c0,22.78-10.67,41.65-27.4,53.39,16.73,11.75,27.4,30.62,27.4,53.4a71.24,71.24,0,0,1-50.54,68L74.79,212.13a35.45,35.45,0,0,0,31.33-35.24,34.19,34.19,0,0,0-3.56-16L74.79,105.34A35.43,35.43,0,0,0,106.12,70.1a32.77,32.77,0,0,0-3.56-15.66L74.92-.48h-26L66.61,34.86H35.28V105.7H48.81l17.8,35.59H35.28v70.84H48.81l17.8,35.59H-.31V-.48h-84.1v250h3999V-.48ZM297.27,247.72H265.94l-17.79-35.59h49.12Zm0-106.43H265.94L248.15,105.7h49.12ZM454.6,247.72H423.27l-17.8-35.59H454.6Zm0-106.43H423.27l-17.8-35.59H454.6Zm192.92,35.6h35.59a32.77,32.77,0,0,0,3.56,15.66l27.77,54.82A70.68,70.68,0,0,1,647.52,176.89Zm39.15-90.77,27.77,54.82A71,71,0,0,1,698.06,2.11l16.38,32.75A35.45,35.45,0,0,0,683.11,70.1,34.19,34.19,0,0,0,686.67,86.12ZM739,244.88l-16.38-32.75A35.45,35.45,0,0,0,754,176.89a34.19,34.19,0,0,0-3.56-16l-27.77-54.82A71,71,0,0,1,739,244.88Zm182.6-50.55-11.39,53.39H873.9L923.74,15.28,941.89,100l-12.82,59.09h25.28l7.83,35.24Zm547.1,53.39h-35.59V59.78l35.59,85.07Zm310.75,0h-31.32l-17.8-35.59h49.12Zm0-106.43h-31.32l-17.8-35.59h49.12Zm236,51.26,27.41,55.17a70.69,70.69,0,0,1-66.57-70.83V70.46a71.68,71.68,0,0,1,50.55-68.35l16.37,32.75a35.79,35.79,0,0,0-31.32,35.6V176.89A32.77,32.77,0,0,0,2015.44,192.55Zm52.33,52.33-16.38-32.75a35.45,35.45,0,0,0,31.33-35.24h35.59A71.25,71.25,0,0,1,2067.77,244.88Zm14.95-174.42a34.19,34.19,0,0,0-3.56-16L2051.39-.38a71,71,0,0,1,66.92,70.84Zm343.13,123.87-11.39,53.39h-36.31L2428,15.28,2446.14,100l-12.81,59.09h25.27l7.83,35.24Zm341.72-1.78L2795,247.37a70.38,70.38,0,0,1-66.57-70.48V70.1a71.25,71.25,0,0,1,50.55-68l16.37,32.75A35.44,35.44,0,0,0,2764,70.1V176.89A32.77,32.77,0,0,0,2767.57,192.55Zm652.81-51.26h-31.32l-17.8-35.59h49.12Zm133.49,106.43h-35.6V59.78l35.6,85.43Z"/></svg>