<svg id="Layer_1" data-name="Layer 1" xmlns="http://www.w3.org/2000/svg" viewBox="0 0 180 159.79"><defs><style>.cls-1{fill:#fff;}</style></defs><g id="fermentation_arts_brewery_logo" data-name="fermentation arts brewery logo"><polygon class="cls-1" points="61.42 38.8 76.71 7.79 0 7.79 0 38.8 61.42 38.8"/><polygon class="cls-1" points="30.55 98.8 45.34 68.8 0 68.8 0 98.8 30.55 98.8"/><polygon class="cls-1" points="172.89 67.8 158.98 67.8 134.82 67.8 147.67 93.8 158.98 93.8 172.89 93.8 180 93.8 180 67.8 172.89 67.8"/><polygon class="cls-1" points="144.33 7.79 125.69 7.79 104.44 7.79 118.78 36.8 144.33 36.8 158.86 36.8 172.85 36.8 180 36.8 180 7.79 144.33 7.79"/><polygon class="cls-1" points="178.24 130.79 173.03 130.79 159.38 130.79 127.03 130.79 62.35 130.79 91.82 69.51 114.91 116.8 148.89 116.8 91.21 0 12.5 159.79 30.83 159.79 47.09 159.79 126.4 159.79 178.22 159.79 180 159.79 180 130.79 178.24 130.79"/></g></svg>