<svg id="Layer_1" data-name="Layer 1" xmlns="http://www.w3.org/2000/svg" xmlns:xlink="http://www.w3.org/1999/xlink" viewBox="0 0 696 216"><defs><style>.cls-1{fill:none;}.cls-2{clip-path:url(#clip-path);}</style><clipPath id="clip-path"><rect class="cls-1" width="696.25" height="215.96"/></clipPath></defs><g id="FAB_wide_logo_black" data-name="FAB wide logo black"><g class="cls-2"><path d="M350,82.92,364,132.73h37.13V82.92ZM284.76,0V216h49.81V132.73h17.94L338.59,82.92h-4V49.81h17.94L338.59,0ZM350,0,364,49.81h37.13V0Z"/><path d="M435.74,0l-33.1,216h50.43l2.47-16.71H488l-7.42-49.81H463.28l8.66-56L457.4,0Zm32.8,0L502,216h50.13L519,0Z"/><g class="cls-2"><path d="M617.05,166.15,631,216H563.21V0h53.84L631,49.81H613V82.92h4L631,132.73H613v33.42Zm25.06,48.58-13.62-48.58h1.24a16.64,16.64,0,0,0,16.71-16.71,20.84,20.84,0,0,0-.62-4.33L628.49,82.92h1.24a16.38,16.38,0,0,0,16.71-16.4,23.83,23.83,0,0,0-.62-4.64L628.49,0h1.24a66.42,66.42,0,0,1,66.52,66.52c0,17.64-7.11,31.56-18.25,41.46,11.14,9.9,18.25,23.83,18.25,41.46a66.42,66.42,0,0,1-54.14,65.29"/><path d="M0,.37V216H240.33V.37Zm31.77,37.1h74.54L91.46,67.59H31.77Zm0,60.91H76.32L61.79,127.85h-30Zm176.78,89.08H42.31L120.43,28.87l57.25,115.92H143.19L120,97.3,90.4,158.84H208.55Zm0-64.55H176.7L164.05,97.3h44.5Zm0-57h-60L134.54,37.47h74Z"/></g></g></g></svg>