<svg id="Layer_1" data-name="Layer 1" xmlns="http://www.w3.org/2000/svg" viewBox="0 0 854 248"><path d="M2341.07-.48a71,71,0,0,1,63.85,70.58V176.89a71.25,71.25,0,0,1-50.55,68L2338,212.13a35.45,35.45,0,0,0,31.32-35.24V70.1a33,33,0,0,0-3.91-15.66L2338.12-.48h-26l17.67,35.34h-31.32V212.13H2312l17.8,35.59h-66.92V-.48H2227.3V187.21l-35.6-85.43V-.48h-67.88l103.48,248.2h-38.45L2085.37-.48h-35.7v248.2h-35.59V-.48h-26.7V34.86h-31.32L1938.39-.48h-26l17.67,35.34h-31.32V105.7h13.53l17.79,35.59h-31.32V247.72h-35.59V-.48H1772V34.86h-27L1727.31-.48H1701l17.67,35.34V247.72H1683.4V34.86H1630V-.48h-18.87V176.89a71.25,71.25,0,0,1-50.54,68l-16.38-32.75a35.45,35.45,0,0,0,31.33-35.24V-.48h-70.84V176.89a32.77,32.77,0,0,0,3.56,15.66L1536,247.37a70.68,70.68,0,0,1-66.91-70.48V-.48H1373.6a71,71,0,0,1,63.84,70.58V176.89a71.25,71.25,0,0,1-50.55,68l-16.37-32.75a35.44,35.44,0,0,0,31.32-35.24V70.1a32.65,32.65,0,0,0-3.56-15.66L1370.65-.48H1203.09a71,71,0,0,1,63.85,70.58c0,22.78-10.68,41.65-27.41,53.39,16.73,11.75,27.41,30.62,27.41,53.4a71.25,71.25,0,0,1-50.55,68L1200,212.13a35.45,35.45,0,0,0,31.32-35.24,34.19,34.19,0,0,0-3.56-16L1200,105.34a35.43,35.43,0,0,0,31.32-35.24,32.77,32.77,0,0,0-3.56-15.66L1200.14-.48h-26l17.67,35.34h-31.32V105.7H1174l17.8,35.59h-31.32v70.84H1174l17.8,35.59h-66.92V-.48h-73.27L1105,247.72h-36.31L1015.33-.48H854v248.2H818.44V141.29H804.91l-17.8-35.59h31.33V-.48H747.6V105.7h13.53l17.79,35.59H747.6V247.72H712V-.48H457.73a70.95,70.95,0,0,1,31.1,130.38l-16-32A34.8,34.8,0,0,0,486,70.1a32.77,32.77,0,0,0-3.56-15.66L454.78-.48h-26l17.67,35.34H415.15V105.7h35.23l71.2,142H481.71l-53-106.43H415.15V247.72h-35.6V-.48h-33.1V34.86H315.13L297.45-.48h-26l17.67,35.34H257.82V105.7h13.52l17.8,35.59H257.82v70.84h13.52l17.8,35.59H222.22V-.48H186.63v248.2H151V-.48H38.65L93.37,138.8l34.17-87.56v89l-15,36.67H74.15L.21-.48H-91V34.86h-27L-135.74-.48h-26.34l17.67,35.34V247.72h-35.24V34.86H-233V-.48h-68.12A71,71,0,0,1-237.31,70.1a70.78,70.78,0,0,1-32.75,59.8l-16-32A34.8,34.8,0,0,0-272.91,70.1a32.77,32.77,0,0,0-3.56-15.66L-304.11-.48h-26l17.67,35.34h-31.33V105.7h35.24l71.2,142h-39.87l-53-106.43h-13.53V247.72h-35.59V-.48h-73.27l53.34,248.2h-36.31L-488.92-.48H-707.3A71,71,0,0,1-643.46,70.1H-679a32.77,32.77,0,0,0-3.56-15.66L-710.25-.48H-867.12A71,71,0,0,1-803.28,70.1,70.78,70.78,0,0,1-836,129.9l-16-32A34.83,34.83,0,0,0-838.87,70.1a32.77,32.77,0,0,0-3.56-15.66L-870.07-.48h-26l17.67,35.34h-31.32V105.7h35.24l71.19,142h-39.87l-53-106.43h-13.53V247.72h-35.6V-.48H-978.4V34.86h-31.33L-1027.4-.48h-26l17.68,35.34H-1067V105.7h13.53l17.8,35.59H-1067v70.84h13.53l17.8,35.59h-66.92V-.48h-33.1V34.86h-31.33L-1184.73-.48h-26L-1193,34.86h-31.33V105.7h13.53l17.8,35.59h-31.33v70.84h13.53l17.8,35.59H-1260V-.48h-95.17a71,71,0,0,1,63.84,70.58c0,22.78-10.67,41.65-27.4,53.39,16.73,11.75,27.4,30.62,27.4,53.4a71.24,71.24,0,0,1-50.54,68l-16.38-32.75a35.45,35.45,0,0,0,31.33-35.24,34.19,34.19,0,0,0-3.56-16l-27.77-55.53a35.43,35.43,0,0,0,31.33-35.24,32.77,32.77,0,0,0-3.56-15.66L-1358.08-.48h-26l17.67,35.34h-31.33V105.7h13.53l17.8,35.59h-31.33v70.84h13.53l17.8,35.59h-66.92V-.48h-84.1v250h3999V-.48Zm-3476.8,248.2h-31.33l-17.79-35.59h49.12Zm0-106.43h-31.33l-17.79-35.59h49.12ZM-978.4,247.72h-31.33l-17.8-35.59h49.13Zm0-106.43h-31.33l-17.8-35.59h49.13Zm192.92,35.6h35.59a32.77,32.77,0,0,0,3.56,15.66l27.77,54.82A70.68,70.68,0,0,1-785.48,176.89Zm39.15-90.77,27.77,54.82A71,71,0,0,1-785.48,70.1a71.24,71.24,0,0,1,50.54-68l16.38,32.75A35.45,35.45,0,0,0-749.89,70.1,34.19,34.19,0,0,0-746.33,86.12ZM-694,244.88l-16.38-32.75A35.45,35.45,0,0,0-679,176.89a34.19,34.19,0,0,0-3.56-16l-27.77-54.82a71,71,0,0,1,66.92,70.84A71.25,71.25,0,0,1-694,244.88Zm182.6-50.55-11.39,53.39H-559.1l49.84-232.44L-491.11,100l-12.82,59.09h25.28l7.83,35.24ZM35.7,247.72H.11V59.78L35.7,144.85Zm310.75,0H315.13l-17.8-35.59h49.12Zm0-106.43H315.13l-17.8-35.59h49.12Zm236,51.26,27.41,55.17a70.69,70.69,0,0,1-66.57-70.83V70.46A71.68,71.68,0,0,1,593.83,2.11L610.2,34.86a35.79,35.79,0,0,0-31.32,35.6V176.89A32.77,32.77,0,0,0,582.44,192.55Zm52.33,52.33-16.38-32.75a35.45,35.45,0,0,0,31.33-35.24h35.59A71.25,71.25,0,0,1,634.77,244.88Zm15-174.42a34.19,34.19,0,0,0-3.56-16L618.39-.38a71,71,0,0,1,66.92,70.84ZM992.85,194.33l-11.39,53.39H945.15L995,15.28,1013.14,100l-12.81,59.09h25.27l7.83,35.24Zm341.72-1.78L1362,247.37a70.38,70.38,0,0,1-66.57-70.48V70.1a71.25,71.25,0,0,1,50.55-68l16.37,32.75A35.44,35.44,0,0,0,1331,70.1V176.89A32.77,32.77,0,0,0,1334.57,192.55Zm652.81-51.26h-31.32l-17.8-35.59h49.12Zm133.49,106.43h-35.6V59.78l35.6,85.43Z"/></svg>