<svg id="Layer_1" data-name="Layer 1" xmlns="http://www.w3.org/2000/svg" xmlns:xlink="http://www.w3.org/1999/xlink" viewBox="0 0 412 216"><defs><style>.cls-1{fill:none;}.cls-2{clip-path:url(#clip-path);}</style><clipPath id="clip-path"><rect class="cls-1" x="-284" width="696.25" height="215.96"/></clipPath></defs><g id="FAB_wide_logo_black" data-name="FAB wide logo black"><g class="cls-2"><path d="M66,82.92,80,132.73h37.13V82.92ZM.76,0V216H50.57V132.73H68.51L54.59,82.92h-4V49.81H68.51L54.59,0ZM66,0,80,49.81h37.13V0Z"/><path d="M151.74,0l-33.1,216h50.43l2.47-16.71H204l-7.42-49.81H179.28l8.66-56L173.4,0Zm32.8,0L218,216h50.13L235,0Z"/><g class="cls-2"><path d="M333.05,166.15,347,216H279.21V0h53.84L347,49.81H329V82.92h4L347,132.73H329v33.42Zm25.06,48.58-13.62-48.58h1.24a16.64,16.64,0,0,0,16.71-16.71,20.84,20.84,0,0,0-.62-4.33L344.49,82.92h1.24a16.38,16.38,0,0,0,16.71-16.4,23.83,23.83,0,0,0-.62-4.64L344.49,0h1.24a66.42,66.42,0,0,1,66.52,66.52c0,17.64-7.11,31.56-18.25,41.46,11.14,9.9,18.25,23.83,18.25,41.46a66.42,66.42,0,0,1-54.14,65.29"/></g></g></g></svg>