<svg id="Layer_1" data-name="Layer 1" xmlns="http://www.w3.org/2000/svg" viewBox="0 0 468 248"><path d="M2900.07-.48a71,71,0,0,1,63.85,70.58V176.89a71.25,71.25,0,0,1-50.55,68L2897,212.13a35.45,35.45,0,0,0,31.32-35.24V70.1a33,33,0,0,0-3.91-15.66L2897.12-.48h-26l17.67,35.34h-31.32V212.13H2871l17.8,35.59h-66.92V-.48H2786.3V187.21l-35.6-85.43V-.48h-67.88l103.48,248.2h-38.45L2644.37-.48h-35.7v248.2h-35.59V-.48h-26.7V34.86h-31.32L2497.39-.48h-26l17.67,35.34h-31.32V105.7h13.53l17.79,35.59h-31.32V247.72h-35.59V-.48H2331V34.86H2304L2286.31-.48H2260l17.67,35.34V247.72H2242.4V34.86H2189V-.48h-18.87V176.89a71.25,71.25,0,0,1-50.54,68l-16.38-32.75a35.45,35.45,0,0,0,31.33-35.24V-.48h-70.84V176.89a32.77,32.77,0,0,0,3.56,15.66L2095,247.37a70.68,70.68,0,0,1-66.91-70.48V-.48H1932.6a71,71,0,0,1,63.84,70.58V176.89a71.25,71.25,0,0,1-50.55,68l-16.37-32.75a35.44,35.44,0,0,0,31.32-35.24V70.1a32.65,32.65,0,0,0-3.56-15.66L1929.65-.48H1762.09a71,71,0,0,1,63.85,70.58c0,22.78-10.68,41.65-27.41,53.39,16.73,11.75,27.41,30.62,27.41,53.4a71.25,71.25,0,0,1-50.55,68L1759,212.13a35.45,35.45,0,0,0,31.32-35.24,34.19,34.19,0,0,0-3.56-16L1759,105.34a35.43,35.43,0,0,0,31.32-35.24,32.77,32.77,0,0,0-3.56-15.66L1759.14-.48h-26l17.67,35.34h-31.32V105.7H1733l17.8,35.59h-31.32v70.84H1733l17.8,35.59h-66.92V-.48h-73.27L1664,247.72h-36.31L1574.33-.48H1413v248.2h-35.59V141.29h-13.53l-17.8-35.59h31.33V-.48H1306.6V105.7h13.53l17.79,35.59H1306.6V247.72H1271V-.48H1016.73a70.95,70.95,0,0,1,31.1,130.38l-16-32A34.8,34.8,0,0,0,1045,70.1a32.77,32.77,0,0,0-3.56-15.66L1013.78-.48h-26l17.67,35.34H974.15V105.7h35.23l71.2,142h-39.87l-53-106.43H974.15V247.72h-35.6V-.48h-33.1V34.86H874.13L856.45-.48h-26l17.67,35.34H816.82V105.7h13.52l17.8,35.59H816.82v70.84h13.52l17.8,35.59H781.22V-.48H745.63v248.2H710V-.48H597.65L652.37,138.8l34.17-87.56v89l-14.95,36.67H633.15L559.21-.48H468V34.86H440.93L423.26-.48H396.92l17.67,35.34V247.72H379.35V34.86H326V-.48H257.84a70.95,70.95,0,0,1,31.1,130.38l-16-32A34.8,34.8,0,0,0,286.09,70.1a32.77,32.77,0,0,0-3.56-15.66L254.89-.48h-26l17.67,35.34H215.25V105.7h35.24l71.2,142H281.82l-53-106.43H215.25V247.72H179.66V-.48H106.39l53.34,248.2H123.42L70.08-.48H-148.3A71,71,0,0,1-84.46,70.1H-120a32.77,32.77,0,0,0-3.56-15.66L-151.25-.48H-308.12A71,71,0,0,1-244.28,70.1,70.78,70.78,0,0,1-277,129.9l-16-32A34.83,34.83,0,0,0-279.87,70.1a32.77,32.77,0,0,0-3.56-15.66L-311.07-.48h-26l17.67,35.34h-31.32V105.7h35.24l71.19,142h-39.87l-53-106.43h-13.53V247.72h-35.6V-.48H-419.4V34.86h-31.33L-468.4-.48h-26l17.68,35.34H-508V105.7h13.53l17.8,35.59H-508v70.84h13.53l17.8,35.59h-66.92V-.48h-33.1V34.86h-31.33L-625.73-.48h-26L-634,34.86h-31.33V105.7h13.53l17.8,35.59h-31.33v70.84h13.53l17.8,35.59H-701V-.48h-95.17A71,71,0,0,1-732.29,70.1c0,22.78-10.67,41.65-27.4,53.39,16.73,11.75,27.4,30.62,27.4,53.4a71.24,71.24,0,0,1-50.54,68l-16.38-32.75a35.45,35.45,0,0,0,31.33-35.24,34.19,34.19,0,0,0-3.56-16l-27.77-55.53A35.43,35.43,0,0,0-767.88,70.1a32.77,32.77,0,0,0-3.56-15.66L-799.08-.48h-26l17.67,35.34h-31.33V105.7h13.53l17.8,35.59h-31.33v70.84h13.53l17.8,35.59h-66.92V-.48h-84.1v250h3999V-.48Zm-3476.8,248.2h-31.33l-17.79-35.59h49.12Zm0-106.43h-31.33l-17.79-35.59h49.12ZM-419.4,247.72h-31.33l-17.8-35.59h49.13Zm0-106.43h-31.33l-17.8-35.59h49.13Zm192.92,35.6h35.59a32.77,32.77,0,0,0,3.56,15.66l27.77,54.82A70.68,70.68,0,0,1-226.48,176.89Zm39.15-90.77,27.77,54.82A71,71,0,0,1-226.48,70.1a71.24,71.24,0,0,1,50.54-68l16.38,32.75A35.45,35.45,0,0,0-190.89,70.1,34.19,34.19,0,0,0-187.33,86.12ZM-135,244.88l-16.38-32.75A35.45,35.45,0,0,0-120,176.89a34.19,34.19,0,0,0-3.56-16l-27.77-54.82a71,71,0,0,1,66.92,70.84A71.25,71.25,0,0,1-135,244.88ZM47.6,194.33,36.21,247.72H-.1L49.74,15.28,67.89,100,55.07,159.09H80.35l7.83,35.24Zm547.1,53.39H559.11V59.78l35.59,85.07Zm310.75,0H874.13l-17.8-35.59h49.12Zm0-106.43H874.13l-17.8-35.59h49.12Zm236,51.26,27.41,55.17a70.69,70.69,0,0,1-66.57-70.83V70.46a71.68,71.68,0,0,1,50.55-68.35l16.37,32.75a35.79,35.79,0,0,0-31.32,35.6V176.89A32.77,32.77,0,0,0,1141.44,192.55Zm52.33,52.33-16.38-32.75a35.45,35.45,0,0,0,31.33-35.24h35.59A71.25,71.25,0,0,1,1193.77,244.88Zm15-174.42a34.19,34.19,0,0,0-3.56-16L1177.39-.38a71,71,0,0,1,66.92,70.84Zm343.13,123.87-11.39,53.39h-36.31L1554,15.28,1572.14,100l-12.81,59.09h25.27l7.83,35.24Zm341.72-1.78L1921,247.37a70.38,70.38,0,0,1-66.57-70.48V70.1a71.25,71.25,0,0,1,50.55-68l16.37,32.75A35.44,35.44,0,0,0,1890,70.1V176.89A32.77,32.77,0,0,0,1893.57,192.55Zm652.81-51.26h-31.32l-17.8-35.59h49.12Zm133.49,106.43h-35.6V59.78l35.6,85.43Z"/></svg>