<svg id="Layer_1" data-name="Layer 1" xmlns="http://www.w3.org/2000/svg" viewBox="0 0 666 216"><path d="M363,0V50H325.73l-14-50H301l14,50H297V83h4l14,50H297v83h67.63L397.75,0Zm0,133H325.73l-14-50H363Z"/><rect x="240" width="7" height="216"/><polygon points="419.42 0 433.92 93.16 425.28 149 442.59 149 450.05 199 417.57 199 415.05 216 463.95 216 430.53 0 419.42 0"/><path d="M590.78,0c36.48,0,66.89,29,67.43,65.47.28,18.09-6.89,32.34-18.23,42.41,11.13,9.9,18.24,23.81,18.24,41.43a66.34,66.34,0,0,1-54.09,65.22L590.52,166h.31a17.52,17.52,0,0,0,17.46-14.94,15.85,15.85,0,0,0-.49-6L590.52,83h1.2a16.4,16.4,0,0,0,16.73-16.41,23.93,23.93,0,0,0-.62-4.65L590.48,0H579l14,50H575V83h4l14,50H575v33h4l14,50h73V0Z"/><polygon points="480.97 0 514.09 216 525 216 525 0 480.97 0"/><path d="M0,0V216H240V0ZM32,38h74.24L91.44,68H32Zm0,61H75.83l-14.3,29H32Zm177,89H41.5L120.21,28.21,177.89,145h-34L120.82,97.71,91.35,159H209Zm0-65H176.67L163.82,97H209Zm0-57H149.89L136.05,38H209Z"/></svg>