<svg id="Layer_1" data-name="Layer 1" xmlns="http://www.w3.org/2000/svg" viewBox="0 0 546 250"><path d="M478.07-.48A71,71,0,0,1,541.92,70.1V176.89a71.25,71.25,0,0,1-50.55,68L475,212.13a35.45,35.45,0,0,0,31.32-35.24V70.1a33,33,0,0,0-3.91-15.66L475.12-.48h-26l17.67,35.34H435.49V212.13H449l17.8,35.59H399.89V-.48H364.3V187.21l-35.6-85.43V-.48H260.82L364.3,247.72H325.85L222.37-.48h-35.7v248.2H151.08V-.48h-26.7V34.86H93.06L75.39-.48h-26L67.07,34.86H35.75V105.7H49.28l17.79,35.59H35.75V247.72H.16V-.48H-91V34.86h-27L-135.69-.48H-162l17.67,35.34V247.72H-179.6V34.86H-233V-.48h-18.87V176.89a71.25,71.25,0,0,1-50.54,68l-16.38-32.75a35.45,35.45,0,0,0,31.33-35.24V-.48h-70.84V176.89a32.77,32.77,0,0,0,3.56,15.66L-327,247.37a70.68,70.68,0,0,1-66.91-70.48V-.48H-489.4A71,71,0,0,1-425.56,70.1V176.89a71.25,71.25,0,0,1-50.55,68l-16.37-32.75a35.44,35.44,0,0,0,31.32-35.24V70.1a32.65,32.65,0,0,0-3.56-15.66L-492.35-.48H-659.91A71,71,0,0,1-596.06,70.1c0,22.78-10.68,41.65-27.41,53.39,16.73,11.75,27.41,30.62,27.41,53.4a71.25,71.25,0,0,1-50.55,68L-663,212.13a35.45,35.45,0,0,0,31.32-35.24,34.19,34.19,0,0,0-3.56-16L-663,105.34A35.43,35.43,0,0,0-631.66,70.1a32.77,32.77,0,0,0-3.56-15.66L-662.86-.48h-26l17.67,35.34h-31.32V105.7H-689l17.8,35.59h-31.32v70.84H-689l17.8,35.59h-66.92V-.48h-73.27L-758,247.72h-36.31L-847.67-.48H-1009v248.2h-35.59V141.29h-13.53l-17.8-35.59h31.33V-.48h-70.84V105.7h13.53l17.79,35.59h-31.32V247.72H-1151V-.48h-254.27a71,71,0,0,1,63.85,70.58,70.78,70.78,0,0,1-32.75,59.8l-16-32A34.8,34.8,0,0,0-1377,70.1a32.77,32.77,0,0,0-3.56-15.66L-1408.22-.48h-26l17.67,35.34h-31.32V105.7h35.23l71.2,142h-39.87l-53-106.43h-13.52V247.72h-35.6V-.48h-33.1V34.86h-31.32L-1565.55-.48h-26l17.67,35.34h-31.32V105.7h13.52l17.8,35.59h-31.32v70.84h13.52l17.8,35.59h-66.92V-.48h-35.59v248.2H-1712V-.48h-112.38l54.72,139.28,34.17-87.56v89l-15,36.67h-38.44L-1862.79-.48H-1954V34.86h-27L-1998.74-.48h-26.34l17.67,35.34V247.72h-35.24V34.86H-2096V-.48h-68.12a71,71,0,0,1,63.85,70.58,70.78,70.78,0,0,1-32.75,59.8l-16-32a34.8,34.8,0,0,0,13.17-27.77,32.77,32.77,0,0,0-3.56-15.66L-2167.11-.48h-26l17.67,35.34h-31.33V105.7h35.24l71.2,142h-39.87l-53-106.43h-13.53V247.72h-35.59V-.48h-73.27l53.34,248.2h-36.31L-2351.92-.48H-2570.3a71,71,0,0,1,63.84,70.58H-2542a32.77,32.77,0,0,0-3.56-15.66L-2573.25-.48h-156.87a71,71,0,0,1,63.84,70.58A70.78,70.78,0,0,1-2699,129.9l-16-32a34.83,34.83,0,0,0,13.17-27.77,32.77,32.77,0,0,0-3.56-15.66L-2733.07-.48h-26l17.67,35.34h-31.32V105.7h35.24l71.19,142h-39.87l-53-106.43h-13.53V247.72h-35.6V-.48h-33.09V34.86h-31.33L-2890.4-.48h-26l17.68,35.34H-2930V105.7h13.53l17.8,35.59H-2930v70.84h13.53l17.8,35.59h-66.92V-.48h-33.1V34.86h-31.33L-3047.73-.48h-26L-3056,34.86h-31.33V105.7h13.53l17.8,35.59h-31.33v70.84h13.53l17.8,35.59H-3123V-.48h-95.17a71,71,0,0,1,63.84,70.58c0,22.78-10.67,41.65-27.4,53.39,16.73,11.75,27.4,30.62,27.4,53.4a71.24,71.24,0,0,1-50.54,68l-16.38-32.75a35.45,35.45,0,0,0,31.33-35.24,34.19,34.19,0,0,0-3.56-16l-27.77-55.53a35.43,35.43,0,0,0,31.33-35.24,32.77,32.77,0,0,0-3.56-15.66L-3221.08-.48h-26l17.67,35.34h-31.33V105.7h13.53l17.8,35.59h-31.33v70.84h13.53l17.8,35.59h-66.92V-.48h-84.1v250h3999V-.48Zm-3476.8,248.2h-31.33l-17.79-35.59h49.12Zm0-106.43h-31.33l-17.79-35.59h49.12Zm157.33,106.43h-31.33l-17.8-35.59h49.13Zm0-106.43h-31.33l-17.8-35.59h49.13Zm192.92,35.6h35.59a32.77,32.77,0,0,0,3.56,15.66l27.77,54.82A70.68,70.68,0,0,1-2648.48,176.89Zm39.15-90.77,27.77,54.82a71,71,0,0,1-66.92-70.84,71.24,71.24,0,0,1,50.54-68l16.38,32.75a35.45,35.45,0,0,0-31.33,35.24A34.19,34.19,0,0,0-2609.33,86.12ZM-2557,244.88l-16.38-32.75A35.45,35.45,0,0,0-2542,176.89a34.19,34.19,0,0,0-3.56-16l-27.77-54.82a71,71,0,0,1,66.92,70.84A71.25,71.25,0,0,1-2557,244.88Zm182.6-50.55-11.39,53.39h-36.31l49.84-232.44,18.15,84.72-12.82,59.09h25.28l7.83,35.24Zm547.1,53.39h-35.59V59.78l35.59,85.07Zm310.75,0h-31.32l-17.8-35.59h49.12Zm0-106.43h-31.32l-17.8-35.59h49.12Zm236,51.26,27.41,55.17a70.69,70.69,0,0,1-66.57-70.83V70.46a71.68,71.68,0,0,1,50.55-68.35l16.37,32.75a35.79,35.79,0,0,0-31.32,35.6V176.89A32.77,32.77,0,0,0-1280.56,192.55Zm52.33,52.33-16.38-32.75a35.45,35.45,0,0,0,31.33-35.24h35.59A71.25,71.25,0,0,1-1228.23,244.88Zm15-174.42a34.19,34.19,0,0,0-3.56-16L-1244.61-.38a71,71,0,0,1,66.92,70.84Zm343.13,123.87-11.39,53.39h-36.31L-868,15.28-849.86,100l-12.81,59.09h25.27l7.83,35.24Zm341.72-1.78L-501,247.37a70.38,70.38,0,0,1-66.57-70.48V70.1A71.25,71.25,0,0,1-517,2.11l16.37,32.75A35.44,35.44,0,0,0-532,70.1V176.89A32.77,32.77,0,0,0-528.43,192.55Zm652.81-51.26H93.06L75.26,105.7h49.12ZM257.87,247.72h-35.6V59.78l35.6,85.43Z"/></svg>