<?xml version="1.0" encoding="utf-8"?>
<!-- Generator: Adobe Illustrator 26.0.2, SVG Export Plug-In . SVG Version: 6.00 Build 0)  -->
<svg version="1.1" id="Layer_1" xmlns="http://www.w3.org/2000/svg" xmlns:xlink="http://www.w3.org/1999/xlink" x="0px" y="0px"
	 viewBox="0 0 228 228" style="enable-background:new 0 0 228 228;" xml:space="preserve">
<g>
	<rect x="14" y="14" width="8" height="56"/>
	<rect x="14" y="78" width="8" height="40"/>
	<rect x="14" y="126" width="8" height="16"/>
	<rect x="14" y="158" width="8" height="56"/>
	<rect x="22" y="14" width="8" height="8"/>
	<rect x="22" y="62" width="8" height="8"/>
	<rect x="22" y="102" width="8" height="16"/>
	<rect x="22" y="126" width="8" height="16"/>
	<rect x="22" y="158" width="8" height="8"/>
	<rect x="22" y="206" width="8" height="8"/>
	<rect x="30" y="14" width="8" height="8"/>
	<rect x="30" y="30" width="8" height="24"/>
	<rect x="30" y="62" width="8" height="8"/>
	<rect x="30" y="94" width="8" height="8"/>
	<rect x="30" y="118" width="8" height="32"/>
	<rect x="30" y="158" width="8" height="8"/>
	<rect x="30" y="174" width="8" height="24"/>
	<rect x="30" y="206" width="8" height="8"/>
	<rect x="38" y="14" width="8" height="8"/>
	<rect x="38" y="30" width="8" height="24"/>
	<rect x="38" y="62" width="8" height="8"/>
	<rect x="38" y="86" width="8" height="32"/>
	<rect x="38" y="158" width="8" height="8"/>
	<rect x="38" y="174" width="8" height="24"/>
	<rect x="38" y="206" width="8" height="8"/>
	<rect x="46" y="14" width="8" height="8"/>
	<rect x="46" y="30" width="8" height="24"/>
	<rect x="46" y="62" width="8" height="8"/>
	<rect x="46" y="78" width="8" height="8"/>
	<rect x="46" y="102" width="8" height="32"/>
	<rect x="46" y="158" width="8" height="8"/>
	<rect x="46" y="174" width="8" height="24"/>
	<rect x="46" y="206" width="8" height="8"/>
	<rect x="54" y="14" width="8" height="8"/>
	<rect x="54" y="62" width="8" height="8"/>
	<rect x="54" y="134" width="8" height="16"/>
	<rect x="54" y="158" width="8" height="8"/>
	<rect x="54" y="206" width="8" height="8"/>
	<rect x="62" y="14" width="8" height="56"/>
	<rect x="62" y="78" width="8" height="8"/>
	<rect x="62" y="94" width="8" height="8"/>
	<rect x="62" y="110" width="8" height="8"/>
	<rect x="62" y="126" width="8" height="8"/>
	<rect x="62" y="142" width="8" height="8"/>
	<rect x="62" y="158" width="8" height="56"/>
	<rect x="70" y="78" width="8" height="8"/>
	<rect x="70" y="94" width="8" height="16"/>
	<rect x="70" y="134" width="8" height="8"/>
	<rect x="78" y="14" width="8" height="8"/>
	<rect x="78" y="38" width="8" height="48"/>
	<rect x="78" y="94" width="8" height="24"/>
	<rect x="78" y="134" width="8" height="32"/>
	<rect x="78" y="174" width="8" height="8"/>
	<rect x="78" y="206" width="8" height="8"/>
	<rect x="86" y="22" width="8" height="8"/>
	<rect x="86" y="38" width="8" height="24"/>
	<rect x="86" y="94" width="8" height="8"/>
	<rect x="86" y="142" width="8" height="64"/>
	<rect x="94" y="30" width="8" height="8"/>
	<rect x="94" y="62" width="8" height="32"/>
	<rect x="94" y="126" width="8" height="16"/>
	<rect x="94" y="158" width="8" height="8"/>
	<rect x="94" y="174" width="8" height="8"/>
	<rect x="94" y="190" width="8" height="8"/>
	<rect x="102" y="14" width="8" height="8"/>
	<rect x="102" y="38" width="8" height="16"/>
	<rect x="102" y="86" width="8" height="16"/>
	<rect x="102" y="110" width="8" height="8"/>
	<rect x="102" y="142" width="8" height="8"/>
	<rect x="102" y="158" width="8" height="16"/>
	<rect x="102" y="206" width="8" height="8"/>
	<rect x="110" y="22" width="8" height="8"/>
	<rect x="110" y="62" width="8" height="32"/>
	<rect x="110" y="110" width="8" height="8"/>
	<rect x="110" y="134" width="8" height="8"/>
	<rect x="110" y="150" width="8" height="16"/>
	<rect x="110" y="174" width="8" height="8"/>
	<rect x="110" y="198" width="8" height="8"/>
	<rect x="118" y="22" width="8" height="8"/>
	<rect x="118" y="38" width="8" height="24"/>
	<rect x="118" y="86" width="8" height="16"/>
	<rect x="118" y="118" width="8" height="16"/>
	<rect x="118" y="142" width="8" height="8"/>
	<rect x="118" y="158" width="8" height="32"/>
	<rect x="118" y="206" width="8" height="8"/>
	<rect x="126" y="14" width="8" height="8"/>
	<rect x="126" y="38" width="8" height="40"/>
	<rect x="126" y="86" width="8" height="8"/>
	<rect x="126" y="134" width="8" height="32"/>
	<rect x="126" y="182" width="8" height="8"/>
	<rect x="126" y="198" width="8" height="16"/>
	<rect x="134" y="14" width="8" height="8"/>
	<rect x="134" y="46" width="8" height="8"/>
	<rect x="134" y="86" width="8" height="24"/>
	<rect x="134" y="118" width="8" height="24"/>
	<rect x="134" y="190" width="8" height="24"/>
	<rect x="142" y="14" width="8" height="16"/>
	<rect x="142" y="38" width="8" height="8"/>
	<rect x="142" y="62" width="8" height="32"/>
	<rect x="142" y="118" width="8" height="8"/>
	<rect x="142" y="142" width="8" height="56"/>
	<rect x="150" y="78" width="8" height="8"/>
	<rect x="150" y="94" width="8" height="8"/>
	<rect x="150" y="110" width="8" height="8"/>
	<rect x="150" y="126" width="8" height="24"/>
	<rect x="150" y="174" width="8" height="8"/>
	<rect x="150" y="190" width="8" height="8"/>
	<rect x="158" y="14" width="8" height="56"/>
	<rect x="158" y="78" width="8" height="8"/>
	<rect x="158" y="110" width="8" height="8"/>
	<rect x="158" y="134" width="8" height="16"/>
	<rect x="158" y="158" width="8" height="8"/>
	<rect x="158" y="174" width="8" height="32"/>
	<rect x="166" y="14" width="8" height="8"/>
	<rect x="166" y="62" width="8" height="8"/>
	<rect x="166" y="78" width="8" height="8"/>
	<rect x="166" y="102" width="8" height="16"/>
	<rect x="166" y="126" width="8" height="24"/>
	<rect x="166" y="174" width="8" height="16"/>
	<rect x="166" y="198" width="8" height="8"/>
	<rect x="174" y="14" width="8" height="8"/>
	<rect x="174" y="30" width="8" height="24"/>
	<rect x="174" y="62" width="8" height="8"/>
	<rect x="174" y="78" width="8" height="24"/>
	<rect x="174" y="118" width="8" height="64"/>
	<rect x="174" y="198" width="8" height="8"/>
	<rect x="182" y="14" width="8" height="8"/>
	<rect x="182" y="30" width="8" height="24"/>
	<rect x="182" y="62" width="8" height="8"/>
	<rect x="182" y="78" width="8" height="24"/>
	<rect x="182" y="110" width="8" height="8"/>
	<rect x="182" y="126" width="8" height="8"/>
	<rect x="182" y="142" width="8" height="8"/>
	<rect x="182" y="166" width="8" height="16"/>
	<rect x="182" y="190" width="8" height="16"/>
	<rect x="190" y="14" width="8" height="8"/>
	<rect x="190" y="30" width="8" height="24"/>
	<rect x="190" y="62" width="8" height="8"/>
	<rect x="190" y="94" width="8" height="24"/>
	<rect x="190" y="126" width="8" height="24"/>
	<rect x="190" y="166" width="8" height="24"/>
	<rect x="190" y="198" width="8" height="16"/>
	<rect x="198" y="14" width="8" height="8"/>
	<rect x="198" y="62" width="8" height="8"/>
	<rect x="198" y="86" width="8" height="8"/>
	<rect x="198" y="102" width="8" height="24"/>
	<rect x="198" y="134" width="8" height="8"/>
	<rect x="198" y="174" width="8" height="40"/>
	<rect x="206" y="14" width="8" height="56"/>
	<rect x="206" y="78" width="8" height="8"/>
	<rect x="206" y="110" width="8" height="8"/>
	<rect x="206" y="174" width="8" height="16"/>
	<rect x="206" y="206" width="8" height="8"/>
</g>
</svg>
