<svg id="Layer_1" data-name="Layer 1" xmlns="http://www.w3.org/2000/svg" viewBox="0 0 200 200"><rect y="1.99" width="8" height="56"/><rect y="65.99" width="8" height="16"/><rect y="89.99" width="8" height="16"/><rect y="145.99" width="8" height="56"/><rect x="8" y="1.99" width="8" height="8"/><rect x="8" y="49.99" width="8" height="8"/><rect x="8" y="73.99" width="8" height="16"/><rect x="8" y="97.99" width="8" height="40"/><rect x="8" y="145.99" width="8" height="8"/><rect x="8" y="193.99" width="8" height="8"/><rect x="16" y="1.99" width="8" height="8"/><rect x="16" y="17.99" width="8" height="24"/><rect x="16" y="49.99" width="8" height="8"/><rect x="16" y="73.99" width="8" height="16"/><rect x="16" y="105.99" width="8" height="8"/><rect x="16" y="129.99" width="8" height="8"/><rect x="16" y="145.99" width="8" height="8"/><rect x="16" y="161.99" width="8" height="24"/><rect x="16" y="193.99" width="8" height="8"/><rect x="24" y="1.99" width="8" height="8"/><rect x="24" y="17.99" width="8" height="24"/><rect x="24" y="49.99" width="8" height="8"/><rect x="24" y="81.99" width="8" height="8"/><rect x="24" y="97.99" width="8" height="8"/><rect x="24" y="113.99" width="8" height="24"/><rect x="24" y="145.99" width="8" height="8"/><rect x="24" y="161.99" width="8" height="24"/><rect x="24" y="193.99" width="8" height="8"/><rect x="32" y="1.99" width="8" height="8"/><rect x="32" y="17.99" width="8" height="24"/><rect x="32" y="49.99" width="8" height="8"/><rect x="32" y="105.99" width="8" height="16"/><rect x="32" y="129.99" width="8" height="8"/><rect x="32" y="145.99" width="8" height="8"/><rect x="32" y="161.99" width="8" height="24"/><rect x="32" y="193.99" width="8" height="8"/><rect x="40" y="1.99" width="8" height="8"/><rect x="40" y="49.99" width="8" height="8"/><rect x="40" y="73.99" width="8" height="8"/><rect x="40" y="89.99" width="8" height="8"/><rect x="40" y="105.99" width="8" height="8"/><rect x="40" y="129.99" width="8" height="8"/><rect x="40" y="145.99" width="8" height="8"/><rect x="40" y="193.99" width="8" height="8"/><rect x="48" y="1.99" width="8" height="56"/><rect x="48" y="65.99" width="8" height="8"/><rect x="48" y="81.99" width="8" height="8"/><rect x="48" y="97.99" width="8" height="8"/><rect x="48" y="113.99" width="8" height="8"/><rect x="48" y="129.99" width="8" height="8"/><rect x="48" y="145.99" width="8" height="56"/><rect x="56" y="73.99" width="8" height="8"/><rect x="56" y="89.99" width="8" height="8"/><rect x="56" y="105.99" width="8" height="8"/><rect x="56" y="121.99" width="8" height="8"/><rect x="64" y="9.99" width="8" height="24"/><rect x="64" y="49.99" width="8" height="24"/><rect x="64" y="81.99" width="8" height="16"/><rect x="64" y="121.99" width="8" height="24"/><rect x="64" y="193.99" width="8" height="8"/><rect x="72" y="1.99" width="8" height="16"/><rect x="72" y="33.99" width="8" height="8"/><rect x="72" y="57.99" width="8" height="8"/><rect x="72" y="81.99" width="8" height="16"/><rect x="72" y="129.99" width="8" height="16"/><rect x="72" y="153.99" width="8" height="8"/><rect x="80" y="9.99" width="8" height="8"/><rect x="80" y="33.99" width="8" height="8"/><rect x="80" y="49.99" width="8" height="16"/><rect x="80" y="73.99" width="8" height="8"/><rect x="80" y="89.99" width="8" height="16"/><rect x="80" y="113.99" width="8" height="8"/><rect x="80" y="145.99" width="8" height="16"/><rect x="80" y="169.99" width="8" height="8"/><rect x="80" y="185.99" width="8" height="8"/><rect x="88" y="1.99" width="8" height="8"/><rect x="88" y="17.99" width="8" height="16"/><rect x="88" y="81.99" width="8" height="16"/><rect x="88" y="113.99" width="8" height="24"/><rect x="88" y="145.99" width="8" height="8"/><rect x="88" y="177.99" width="8" height="16"/><rect x="96" y="1.99" width="8" height="24"/><rect x="96" y="33.99" width="8" height="8"/><rect x="96" y="49.99" width="8" height="8"/><rect x="96" y="65.99" width="8" height="24"/><rect x="96" y="97.99" width="8" height="8"/><rect x="96" y="113.99" width="8" height="8"/><rect x="96" y="137.99" width="8" height="8"/><rect x="96" y="153.99" width="8" height="16"/><rect x="96" y="177.99" width="8" height="8"/><rect x="104" y="1.99" width="8" height="8"/><rect x="104" y="25.99" width="8" height="24"/><rect x="104" y="65.99" width="8" height="8"/><rect x="104" y="81.99" width="8" height="8"/><rect x="104" y="137.99" width="8" height="8"/><rect x="104" y="153.99" width="8" height="8"/><rect x="104" y="193.99" width="8" height="8"/><rect x="112" y="9.99" width="8" height="8"/><rect x="112" y="41.99" width="8" height="32"/><rect x="112" y="113.99" width="8" height="8"/><rect x="112" y="161.99" width="8" height="16"/><rect x="112" y="185.99" width="8" height="16"/><rect x="120" y="57.99" width="8" height="8"/><rect x="120" y="73.99" width="8" height="48"/><rect x="120" y="129.99" width="8" height="8"/><rect x="120" y="153.99" width="8" height="24"/><rect x="128" y="9.99" width="8" height="8"/><rect x="128" y="33.99" width="8" height="32"/><rect x="128" y="73.99" width="8" height="8"/><rect x="128" y="105.99" width="8" height="16"/><rect x="128" y="129.99" width="8" height="48"/><rect x="128" y="185.99" width="8" height="16"/><rect x="136" y="65.99" width="8" height="8"/><rect x="136" y="97.99" width="8" height="8"/><rect x="136" y="113.99" width="8" height="8"/><rect x="136" y="129.99" width="8" height="8"/><rect x="136" y="161.99" width="8" height="16"/><rect x="136" y="193.99" width="8" height="8"/><rect x="144" y="1.99" width="8" height="56"/><rect x="144" y="65.99" width="8" height="8"/><rect x="144" y="81.99" width="8" height="8"/><rect x="144" y="97.99" width="8" height="8"/><rect x="144" y="129.99" width="8" height="8"/><rect x="144" y="145.99" width="8" height="8"/><rect x="144" y="161.99" width="8" height="16"/><rect x="144" y="185.99" width="8" height="8"/><rect x="152" y="1.99" width="8" height="8"/><rect x="152" y="49.99" width="8" height="8"/><rect x="152" y="73.99" width="8" height="16"/><rect x="152" y="97.99" width="8" height="16"/><rect x="152" y="121.99" width="8" height="16"/><rect x="152" y="161.99" width="8" height="8"/><rect x="152" y="177.99" width="8" height="16"/><rect x="160" y="1.99" width="8" height="8"/><rect x="160" y="17.99" width="8" height="24"/><rect x="160" y="49.99" width="8" height="8"/><rect x="160" y="73.99" width="8" height="8"/><rect x="160" y="113.99" width="8" height="56"/><rect x="160" y="185.99" width="8" height="8"/><rect x="168" y="1.99" width="8" height="8"/><rect x="168" y="17.99" width="8" height="24"/><rect x="168" y="49.99" width="8" height="8"/><rect x="168" y="65.99" width="8" height="32"/><rect x="168" y="113.99" width="8" height="8"/><rect x="168" y="145.99" width="8" height="8"/><rect x="168" y="161.99" width="8" height="16"/><rect x="168" y="193.99" width="8" height="8"/><rect x="176" y="1.99" width="8" height="8"/><rect x="176" y="17.99" width="8" height="24"/><rect x="176" y="49.99" width="8" height="8"/><rect x="176" y="65.99" width="8" height="16"/><rect x="176" y="121.99" width="8" height="24"/><rect x="176" y="161.99" width="8" height="8"/><rect x="176" y="177.99" width="8" height="8"/><rect x="184" y="1.99" width="8" height="8"/><rect x="184" y="49.99" width="8" height="8"/><rect x="184" y="65.99" width="8" height="24"/><rect x="184" y="105.99" width="8" height="16"/><rect x="184" y="153.99" width="8" height="24"/><rect x="192" y="1.99" width="8" height="56"/><rect x="192" y="81.99" width="8" height="24"/><rect x="192" y="113.99" width="8" height="16"/><rect x="192" y="145.99" width="8" height="56"/></svg>