<svg id="Layer_1" data-name="Layer 1" xmlns="http://www.w3.org/2000/svg" viewBox="0 0 200 200"><rect x="1.11" width="8" height="56"/><rect x="1.11" y="64" width="8" height="8"/><rect x="1.11" y="80" width="8" height="8"/><rect x="1.11" y="144" width="8" height="56"/><rect x="9.11" width="8" height="8"/><rect x="9.11" y="48" width="8" height="8"/><rect x="9.11" y="72" width="8" height="8"/><rect x="9.11" y="88" width="8" height="8"/><rect x="9.11" y="112" width="8" height="24"/><rect x="9.11" y="144" width="8" height="8"/><rect x="9.11" y="192" width="8" height="8"/><rect x="17.11" width="8" height="8"/><rect x="17.11" y="16" width="8" height="24"/><rect x="17.11" y="48" width="8" height="8"/><rect x="17.11" y="64" width="8" height="8"/><rect x="17.11" y="88" width="8" height="16"/><rect x="17.11" y="120" width="8" height="16"/><rect x="17.11" y="144" width="8" height="8"/><rect x="17.11" y="160" width="8" height="24"/><rect x="17.11" y="192" width="8" height="8"/><rect x="25.11" width="8" height="8"/><rect x="25.11" y="16" width="8" height="24"/><rect x="25.11" y="48" width="8" height="8"/><rect x="25.11" y="64" width="8" height="8"/><rect x="25.11" y="104" width="8" height="32"/><rect x="25.11" y="144" width="8" height="8"/><rect x="25.11" y="160" width="8" height="24"/><rect x="25.11" y="192" width="8" height="8"/><rect x="33.11" width="8" height="8"/><rect x="33.11" y="16" width="8" height="24"/><rect x="33.11" y="48" width="8" height="8"/><rect x="33.11" y="64" width="8" height="40"/><rect x="33.11" y="144" width="8" height="8"/><rect x="33.11" y="160" width="8" height="24"/><rect x="33.11" y="192" width="8" height="8"/><rect x="41.11" width="8" height="8"/><rect x="41.11" y="48" width="8" height="8"/><rect x="41.11" y="64" width="8" height="16"/><rect x="41.11" y="88" width="8" height="16"/><rect x="41.11" y="128" width="8" height="8"/><rect x="41.11" y="144" width="8" height="8"/><rect x="41.11" y="192" width="8" height="8"/><rect x="49.11" width="8" height="56"/><rect x="49.11" y="64" width="8" height="8"/><rect x="49.11" y="80" width="8" height="8"/><rect x="49.11" y="96" width="8" height="8"/><rect x="49.11" y="112" width="8" height="8"/><rect x="49.11" y="128" width="8" height="8"/><rect x="49.11" y="144" width="8" height="56"/><rect x="57.11" y="72" width="8" height="8"/><rect x="57.11" y="104" width="8" height="8"/><rect x="65.11" y="16" width="8" height="48"/><rect x="65.11" y="88" width="8" height="16"/><rect x="65.11" y="112" width="8" height="16"/><rect x="65.11" y="136" width="8" height="8"/><rect x="65.11" y="152" width="8" height="32"/><rect x="65.11" y="192" width="8" height="8"/><rect x="73.11" y="8" width="8" height="16"/><rect x="73.11" y="40" width="8" height="8"/><rect x="73.11" y="72" width="8" height="16"/><rect x="73.11" y="96" width="8" height="8"/><rect x="73.11" y="136" width="8" height="16"/><rect x="73.11" y="160" width="8" height="8"/><rect x="73.11" y="176" width="8" height="8"/><rect x="73.11" y="192" width="8" height="8"/><rect x="81.11" width="8" height="8"/><rect x="81.11" y="16" width="8" height="40"/><rect x="81.11" y="80" width="8" height="8"/><rect x="81.11" y="96" width="8" height="16"/><rect x="81.11" y="144" width="8" height="32"/><rect x="81.11" y="184" width="8" height="16"/><rect x="89.11" width="8" height="8"/><rect x="89.11" y="16" width="8" height="8"/><rect x="89.11" y="32" width="8" height="16"/><rect x="89.11" y="72" width="8" height="24"/><rect x="89.11" y="144" width="8" height="24"/><rect x="97.11" y="16" width="8" height="16"/><rect x="97.11" y="40" width="8" height="16"/><rect x="97.11" y="64" width="8" height="8"/><rect x="97.11" y="88" width="8" height="8"/><rect x="97.11" y="104" width="8" height="8"/><rect x="97.11" y="120" width="8" height="16"/><rect x="97.11" y="144" width="8" height="8"/><rect x="97.11" y="168" width="8" height="8"/><rect x="97.11" y="184" width="8" height="16"/><rect x="105.11" y="24" width="8" height="8"/><rect x="105.11" y="40" width="8" height="8"/><rect x="105.11" y="64" width="8" height="8"/><rect x="105.11" y="80" width="8" height="8"/><rect x="105.11" y="104" width="8" height="24"/><rect x="105.11" y="168" width="8" height="24"/><rect x="113.11" y="16" width="8" height="16"/><rect x="113.11" y="48" width="8" height="8"/><rect x="113.11" y="64" width="8" height="16"/><rect x="113.11" y="88" width="8" height="8"/><rect x="113.11" y="112" width="8" height="8"/><rect x="113.11" y="128" width="8" height="8"/><rect x="113.11" y="152" width="8" height="8"/><rect x="113.11" y="168" width="8" height="16"/><rect x="113.11" y="192" width="8" height="8"/><rect x="121.11" y="8" width="8" height="16"/><rect x="121.11" y="40" width="8" height="8"/><rect x="121.11" y="80" width="8" height="8"/><rect x="121.11" y="96" width="8" height="8"/><rect x="121.11" y="112" width="8" height="32"/><rect x="121.11" y="160" width="8" height="8"/><rect x="121.11" y="184" width="8" height="8"/><rect x="129.11" width="8" height="8"/><rect x="129.11" y="16" width="8" height="8"/><rect x="129.11" y="32" width="8" height="32"/><rect x="129.11" y="96" width="8" height="72"/><rect x="129.11" y="184" width="8" height="8"/><rect x="137.11" y="112" width="8" height="8"/><rect x="137.11" y="128" width="8" height="8"/><rect x="137.11" y="160" width="8" height="16"/><rect x="145.11" width="8" height="56"/><rect x="145.11" y="64" width="8" height="8"/><rect x="145.11" y="80" width="8" height="8"/><rect x="145.11" y="96" width="8" height="8"/><rect x="145.11" y="128" width="8" height="8"/><rect x="145.11" y="144" width="8" height="8"/><rect x="145.11" y="160" width="8" height="16"/><rect x="145.11" y="184" width="8" height="8"/><rect x="153.11" width="8" height="8"/><rect x="153.11" y="48" width="8" height="8"/><rect x="153.11" y="64" width="8" height="24"/><rect x="153.11" y="104" width="8" height="8"/><rect x="153.11" y="120" width="8" height="16"/><rect x="153.11" y="160" width="8" height="8"/><rect x="153.11" y="176" width="8" height="24"/><rect x="161.11" width="8" height="8"/><rect x="161.11" y="16" width="8" height="24"/><rect x="161.11" y="48" width="8" height="8"/><rect x="161.11" y="64" width="8" height="8"/><rect x="161.11" y="96" width="8" height="8"/><rect x="161.11" y="112" width="8" height="8"/><rect x="161.11" y="128" width="8" height="48"/><rect x="161.11" y="184" width="8" height="16"/><rect x="169.11" width="8" height="8"/><rect x="169.11" y="16" width="8" height="24"/><rect x="169.11" y="48" width="8" height="8"/><rect x="169.11" y="64" width="8" height="8"/><rect x="169.11" y="80" width="8" height="8"/><rect x="169.11" y="104" width="8" height="24"/><rect x="169.11" y="136" width="8" height="32"/><rect x="169.11" y="184" width="8" height="16"/><rect x="177.11" width="8" height="8"/><rect x="177.11" y="16" width="8" height="24"/><rect x="177.11" y="48" width="8" height="8"/><rect x="177.11" y="64" width="8" height="8"/><rect x="177.11" y="96" width="8" height="8"/><rect x="177.11" y="128" width="8" height="24"/><rect x="177.11" y="160" width="8" height="24"/><rect x="177.11" y="192" width="8" height="8"/><rect x="185.11" width="8" height="8"/><rect x="185.11" y="48" width="8" height="8"/><rect x="185.11" y="72" width="8" height="16"/><rect x="185.11" y="96" width="8" height="24"/><rect x="185.11" y="144" width="8" height="8"/><rect x="185.11" y="160" width="8" height="16"/><rect x="185.11" y="192" width="8" height="8"/><rect x="193.11" width="8" height="56"/><rect x="193.11" y="80" width="8" height="24"/><rect x="193.11" y="112" width="8" height="16"/><rect x="193.11" y="144" width="8" height="56"/></svg>