<svg id="Layer_1" data-name="Layer 1" xmlns="http://www.w3.org/2000/svg" viewBox="0 0 200 200"><rect y="0.76" width="8" height="56"/><rect y="64.76" width="8" height="16"/><rect y="88.76" width="8" height="8"/><rect y="104.76" width="8" height="16"/><rect y="128.76" width="8" height="8"/><rect y="144.76" width="8" height="56"/><rect x="8" y="0.76" width="8" height="8"/><rect x="8" y="48.76" width="8" height="8"/><rect x="8" y="72.76" width="8" height="16"/><rect x="8" y="96.76" width="8" height="8"/><rect x="8" y="120.76" width="8" height="16"/><rect x="8" y="144.76" width="8" height="8"/><rect x="8" y="192.76" width="8" height="8"/><rect x="16" y="0.76" width="8" height="8"/><rect x="16" y="16.76" width="8" height="24"/><rect x="16" y="48.76" width="8" height="8"/><rect x="16" y="64.76" width="8" height="8"/><rect x="16" y="80.76" width="8" height="16"/><rect x="16" y="120.76" width="8" height="8"/><rect x="16" y="144.76" width="8" height="8"/><rect x="16" y="160.76" width="8" height="24"/><rect x="16" y="192.76" width="8" height="8"/><rect x="24" y="0.76" width="8" height="8"/><rect x="24" y="16.76" width="8" height="24"/><rect x="24" y="48.76" width="8" height="8"/><rect x="24" y="64.76" width="8" height="8"/><rect x="24" y="80.76" width="8" height="8"/><rect x="24" y="96.76" width="8" height="32"/><rect x="24" y="144.76" width="8" height="8"/><rect x="24" y="160.76" width="8" height="24"/><rect x="24" y="192.76" width="8" height="8"/><rect x="32" y="0.76" width="8" height="8"/><rect x="32" y="16.76" width="8" height="24"/><rect x="32" y="48.76" width="8" height="8"/><rect x="32" y="72.76" width="8" height="24"/><rect x="32" y="128.76" width="8" height="8"/><rect x="32" y="144.76" width="8" height="8"/><rect x="32" y="160.76" width="8" height="24"/><rect x="32" y="192.76" width="8" height="8"/><rect x="40" y="0.76" width="8" height="8"/><rect x="40" y="48.76" width="8" height="8"/><rect x="40" y="64.76" width="8" height="8"/><rect x="40" y="96.76" width="8" height="8"/><rect x="40" y="128.76" width="8" height="8"/><rect x="40" y="144.76" width="8" height="8"/><rect x="40" y="192.76" width="8" height="8"/><rect x="48" y="0.76" width="8" height="56"/><rect x="48" y="64.76" width="8" height="8"/><rect x="48" y="80.76" width="8" height="8"/><rect x="48" y="96.76" width="8" height="8"/><rect x="48" y="112.76" width="8" height="8"/><rect x="48" y="128.76" width="8" height="8"/><rect x="48" y="144.76" width="8" height="56"/><rect x="56" y="64.76" width="8" height="24"/><rect x="56" y="96.76" width="8" height="8"/><rect x="56" y="112.76" width="8" height="8"/><rect x="56" y="128.76" width="8" height="8"/><rect x="64" y="0.76" width="8" height="16"/><rect x="64" y="24.76" width="8" height="8"/><rect x="64" y="48.76" width="8" height="16"/><rect x="64" y="88.76" width="8" height="24"/><rect x="64" y="128.76" width="8" height="32"/><rect x="64" y="168.76" width="8" height="16"/><rect x="64" y="192.76" width="8" height="8"/><rect x="72" y="0.76" width="8" height="8"/><rect x="72" y="24.76" width="8" height="8"/><rect x="72" y="40.76" width="8" height="8"/><rect x="72" y="56.76" width="8" height="8"/><rect x="72" y="72.76" width="8" height="8"/><rect x="72" y="88.76" width="8" height="16"/><rect x="72" y="128.76" width="8" height="8"/><rect x="72" y="152.76" width="8" height="24"/><rect x="72" y="184.76" width="8" height="16"/><rect x="80" y="0.76" width="8" height="8"/><rect x="80" y="24.76" width="8" height="16"/><rect x="80" y="48.76" width="8" height="16"/><rect x="80" y="88.76" width="8" height="8"/><rect x="80" y="112.76" width="8" height="40"/><rect x="80" y="160.76" width="8" height="40"/><rect x="88" y="0.76" width="8" height="8"/><rect x="88" y="16.76" width="8" height="16"/><rect x="88" y="56.76" width="8" height="8"/><rect x="88" y="80.76" width="8" height="8"/><rect x="88" y="96.76" width="8" height="16"/><rect x="88" y="128.76" width="8" height="8"/><rect x="88" y="144.76" width="8" height="8"/><rect x="88" y="160.76" width="8" height="8"/><rect x="88" y="176.76" width="8" height="8"/><rect x="96" y="16.76" width="8" height="16"/><rect x="96" y="48.76" width="8" height="8"/><rect x="96" y="64.76" width="8" height="24"/><rect x="96" y="112.76" width="8" height="16"/><rect x="96" y="136.76" width="8" height="48"/><rect x="96" y="192.76" width="8" height="8"/><rect x="104" y="8.76" width="8" height="24"/><rect x="104" y="40.76" width="8" height="8"/><rect x="104" y="88.76" width="8" height="16"/><rect x="104" y="128.76" width="8" height="24"/><rect x="104" y="160.76" width="8" height="24"/><rect x="112" y="8.76" width="8" height="8"/><rect x="112" y="24.76" width="8" height="32"/><rect x="112" y="64.76" width="8" height="8"/><rect x="112" y="88.76" width="8" height="16"/><rect x="112" y="136.76" width="8" height="8"/><rect x="112" y="192.76" width="8" height="8"/><rect x="120" y="16.76" width="8" height="8"/><rect x="120" y="32.76" width="8" height="8"/><rect x="120" y="56.76" width="8" height="8"/><rect x="120" y="96.76" width="8" height="16"/><rect x="120" y="120.76" width="8" height="8"/><rect x="120" y="152.76" width="8" height="8"/><rect x="120" y="168.76" width="8" height="8"/><rect x="128" y="0.76" width="8" height="16"/><rect x="128" y="40.76" width="8" height="16"/><rect x="128" y="72.76" width="8" height="16"/><rect x="128" y="104.76" width="8" height="8"/><rect x="128" y="120.76" width="8" height="56"/><rect x="136" y="80.76" width="8" height="32"/><rect x="136" y="128.76" width="8" height="8"/><rect x="136" y="160.76" width="8" height="8"/><rect x="136" y="176.76" width="8" height="16"/><rect x="144" y="0.76" width="8" height="56"/><rect x="144" y="64.76" width="8" height="8"/><rect x="144" y="96.76" width="8" height="16"/><rect x="144" y="128.76" width="8" height="8"/><rect x="144" y="144.76" width="8" height="8"/><rect x="144" y="160.76" width="8" height="32"/><rect x="152" y="0.76" width="8" height="8"/><rect x="152" y="48.76" width="8" height="8"/><rect x="152" y="72.76" width="8" height="8"/><rect x="152" y="104.76" width="8" height="8"/><rect x="152" y="120.76" width="8" height="16"/><rect x="152" y="160.76" width="8" height="8"/><rect x="152" y="192.76" width="8" height="8"/><rect x="160" y="0.76" width="8" height="8"/><rect x="160" y="16.76" width="8" height="24"/><rect x="160" y="48.76" width="8" height="8"/><rect x="160" y="96.76" width="8" height="104"/><rect x="168" y="0.76" width="8" height="8"/><rect x="168" y="16.76" width="8" height="24"/><rect x="168" y="48.76" width="8" height="8"/><rect x="168" y="64.76" width="8" height="8"/><rect x="168" y="88.76" width="8" height="8"/><rect x="168" y="128.76" width="8" height="8"/><rect x="168" y="160.76" width="8" height="16"/><rect x="168" y="192.76" width="8" height="8"/><rect x="176" y="0.76" width="8" height="8"/><rect x="176" y="16.76" width="8" height="24"/><rect x="176" y="48.76" width="8" height="8"/><rect x="176" y="88.76" width="8" height="16"/><rect x="176" y="112.76" width="8" height="8"/><rect x="176" y="128.76" width="8" height="24"/><rect x="176" y="168.76" width="8" height="32"/><rect x="184" y="0.76" width="8" height="8"/><rect x="184" y="48.76" width="8" height="8"/><rect x="184" y="64.76" width="8" height="16"/><rect x="184" y="96.76" width="8" height="8"/><rect x="184" y="112.76" width="8" height="8"/><rect x="184" y="128.76" width="8" height="8"/><rect x="184" y="144.76" width="8" height="40"/><rect x="184" y="192.76" width="8" height="8"/><rect x="192" y="0.76" width="8" height="56"/><rect x="192" y="64.76" width="8" height="8"/><rect x="192" y="96.76" width="8" height="16"/><rect x="192" y="120.76" width="8" height="40"/><rect x="192" y="168.76" width="8" height="8"/><rect x="192" y="192.76" width="8" height="8"/></svg>