<svg id="Layer_1" data-name="Layer 1" xmlns="http://www.w3.org/2000/svg" viewBox="0 0 200 200"><rect y="4" width="8" height="56"/><rect y="68" width="8" height="8"/><rect y="92" width="8" height="16"/><rect y="148" width="8" height="56"/><rect x="8" y="4" width="8" height="8"/><rect x="8" y="52" width="8" height="8"/><rect x="8" y="76" width="8" height="8"/><rect x="8" y="100" width="8" height="8"/><rect x="8" y="116" width="8" height="24"/><rect x="8" y="148" width="8" height="8"/><rect x="8" y="196" width="8" height="8"/><rect x="16" y="4" width="8" height="8"/><rect x="16" y="20" width="8" height="24"/><rect x="16" y="52" width="8" height="8"/><rect x="16" y="68" width="8" height="8"/><rect x="16" y="124" width="8" height="8"/><rect x="16" y="148" width="8" height="8"/><rect x="16" y="164" width="8" height="24"/><rect x="16" y="196" width="8" height="8"/><rect x="24" y="4" width="8" height="8"/><rect x="24" y="20" width="8" height="24"/><rect x="24" y="52" width="8" height="8"/><rect x="24" y="68" width="8" height="24"/><rect x="24" y="108" width="8" height="8"/><rect x="24" y="148" width="8" height="8"/><rect x="24" y="164" width="8" height="24"/><rect x="24" y="196" width="8" height="8"/><rect x="32" y="4" width="8" height="8"/><rect x="32" y="20" width="8" height="24"/><rect x="32" y="52" width="8" height="8"/><rect x="32" y="68" width="8" height="24"/><rect x="32" y="100" width="8" height="32"/><rect x="32" y="148" width="8" height="8"/><rect x="32" y="164" width="8" height="24"/><rect x="32" y="196" width="8" height="8"/><rect x="40" y="4" width="8" height="8"/><rect x="40" y="52" width="8" height="8"/><rect x="40" y="68" width="8" height="8"/><rect x="40" y="92" width="8" height="8"/><rect x="40" y="132" width="8" height="8"/><rect x="40" y="148" width="8" height="8"/><rect x="40" y="196" width="8" height="8"/><rect x="48" y="4" width="8" height="56"/><rect x="48" y="68" width="8" height="8"/><rect x="48" y="84" width="8" height="8"/><rect x="48" y="100" width="8" height="8"/><rect x="48" y="116" width="8" height="8"/><rect x="48" y="132" width="8" height="8"/><rect x="48" y="148" width="8" height="56"/><rect x="56" y="76" width="8" height="8"/><rect x="56" y="100" width="8" height="24"/><rect x="64" y="20" width="8" height="48"/><rect x="64" y="76" width="8" height="8"/><rect x="64" y="92" width="8" height="8"/><rect x="64" y="116" width="8" height="16"/><rect x="64" y="140" width="8" height="8"/><rect x="64" y="156" width="8" height="32"/><rect x="64" y="196" width="8" height="8"/><rect x="72" y="12" width="8" height="24"/><rect x="72" y="60" width="8" height="16"/><rect x="72" y="84" width="8" height="8"/><rect x="72" y="108" width="8" height="56"/><rect x="72" y="172" width="8" height="8"/><rect x="80" y="12" width="8" height="48"/><rect x="80" y="68" width="8" height="8"/><rect x="80" y="84" width="8" height="16"/><rect x="80" y="116" width="8" height="8"/><rect x="80" y="156" width="8" height="8"/><rect x="80" y="180" width="8" height="16"/><rect x="88" y="4" width="8" height="8"/><rect x="88" y="28" width="8" height="16"/><rect x="88" y="60" width="8" height="32"/><rect x="88" y="116" width="8" height="24"/><rect x="88" y="180" width="8" height="24"/><rect x="96" y="4" width="8" height="8"/><rect x="96" y="20" width="8" height="16"/><rect x="96" y="52" width="8" height="8"/><rect x="96" y="68" width="8" height="8"/><rect x="96" y="92" width="8" height="16"/><rect x="96" y="116" width="8" height="8"/><rect x="96" y="140" width="8" height="8"/><rect x="96" y="156" width="8" height="16"/><rect x="96" y="180" width="8" height="8"/><rect x="104" y="28" width="8" height="8"/><rect x="104" y="68" width="8" height="8"/><rect x="104" y="84" width="8" height="8"/><rect x="104" y="100" width="8" height="8"/><rect x="104" y="116" width="8" height="8"/><rect x="104" y="140" width="8" height="24"/><rect x="112" y="12" width="8" height="24"/><rect x="112" y="44" width="8" height="40"/><rect x="112" y="100" width="8" height="16"/><rect x="112" y="124" width="8" height="8"/><rect x="112" y="148" width="8" height="8"/><rect x="112" y="164" width="8" height="8"/><rect x="112" y="188" width="8" height="8"/><rect x="120" y="12" width="8" height="8"/><rect x="120" y="28" width="8" height="8"/><rect x="120" y="44" width="8" height="8"/><rect x="120" y="84" width="8" height="8"/><rect x="120" y="100" width="8" height="8"/><rect x="120" y="116" width="8" height="32"/><rect x="120" y="164" width="8" height="8"/><rect x="120" y="188" width="8" height="8"/><rect x="128" y="4" width="8" height="8"/><rect x="128" y="36" width="8" height="32"/><rect x="128" y="100" width="8" height="72"/><rect x="128" y="188" width="8" height="8"/><rect x="136" y="116" width="8" height="8"/><rect x="136" y="132" width="8" height="8"/><rect x="136" y="164" width="8" height="16"/><rect x="144" y="4" width="8" height="56"/><rect x="144" y="68" width="8" height="8"/><rect x="144" y="84" width="8" height="8"/><rect x="144" y="100" width="8" height="8"/><rect x="144" y="132" width="8" height="8"/><rect x="144" y="148" width="8" height="8"/><rect x="144" y="164" width="8" height="16"/><rect x="144" y="188" width="8" height="8"/><rect x="152" y="4" width="8" height="8"/><rect x="152" y="52" width="8" height="8"/><rect x="152" y="68" width="8" height="24"/><rect x="152" y="108" width="8" height="8"/><rect x="152" y="124" width="8" height="16"/><rect x="152" y="164" width="8" height="8"/><rect x="152" y="180" width="8" height="24"/><rect x="160" y="4" width="8" height="8"/><rect x="160" y="20" width="8" height="24"/><rect x="160" y="52" width="8" height="8"/><rect x="160" y="68" width="8" height="8"/><rect x="160" y="100" width="8" height="8"/><rect x="160" y="116" width="8" height="8"/><rect x="160" y="132" width="8" height="48"/><rect x="160" y="188" width="8" height="16"/><rect x="168" y="4" width="8" height="8"/><rect x="168" y="20" width="8" height="24"/><rect x="168" y="52" width="8" height="8"/><rect x="168" y="68" width="8" height="8"/><rect x="168" y="84" width="8" height="8"/><rect x="168" y="108" width="8" height="24"/><rect x="168" y="140" width="8" height="32"/><rect x="168" y="188" width="8" height="16"/><rect x="176" y="4" width="8" height="8"/><rect x="176" y="20" width="8" height="24"/><rect x="176" y="52" width="8" height="8"/><rect x="176" y="68" width="8" height="8"/><rect x="176" y="100" width="8" height="8"/><rect x="176" y="132" width="8" height="24"/><rect x="176" y="164" width="8" height="24"/><rect x="176" y="196" width="8" height="8"/><rect x="184" y="4" width="8" height="8"/><rect x="184" y="52" width="8" height="8"/><rect x="184" y="76" width="8" height="16"/><rect x="184" y="100" width="8" height="24"/><rect x="184" y="148" width="8" height="32"/><rect x="184" y="196" width="8" height="8"/><rect x="192" y="4" width="8" height="56"/><rect x="192" y="84" width="8" height="24"/><rect x="192" y="116" width="8" height="16"/><rect x="192" y="148" width="8" height="56"/></svg>