<svg id="Layer_1" data-name="Layer 1" xmlns="http://www.w3.org/2000/svg" viewBox="0 0 200 200"><g id="qr_labs"><rect width="8" height="56"/><rect y="64" width="8" height="8"/><rect y="88" width="8" height="16"/><rect y="144" width="8" height="56"/><rect x="8" width="8" height="8"/><rect x="8" y="48" width="8" height="8"/><rect x="8" y="72" width="8" height="8"/><rect x="8" y="88" width="8" height="8"/><rect x="8" y="112" width="8" height="24"/><rect x="8" y="144" width="8" height="8"/><rect x="8" y="192" width="8" height="8"/><rect x="16" width="8" height="8"/><rect x="16" y="16" width="8" height="24"/><rect x="16" y="48" width="8" height="8"/><rect x="16" y="64" width="8" height="16"/><rect x="16" y="88" width="8" height="16"/><rect x="16" y="120" width="8" height="16"/><rect x="16" y="144" width="8" height="8"/><rect x="16" y="160" width="8" height="24"/><rect x="16" y="192" width="8" height="8"/><rect x="24" width="8" height="8"/><rect x="24" y="16" width="8" height="24"/><rect x="24" y="48" width="8" height="8"/><rect x="24" y="64" width="8" height="72"/><rect x="24" y="144" width="8" height="8"/><rect x="24" y="160" width="8" height="24"/><rect x="24" y="192" width="8" height="8"/><rect x="32" width="8" height="8"/><rect x="32" y="16" width="8" height="24"/><rect x="32" y="48" width="8" height="8"/><rect x="32" y="64" width="8" height="16"/><rect x="32" y="88" width="8" height="16"/><rect x="32" y="120" width="8" height="8"/><rect x="32" y="144" width="8" height="8"/><rect x="32" y="160" width="8" height="24"/><rect x="32" y="192" width="8" height="8"/><rect x="40" width="8" height="8"/><rect x="40" y="48" width="8" height="8"/><rect x="40" y="64" width="8" height="16"/><rect x="40" y="88" width="8" height="8"/><rect x="40" y="144" width="8" height="8"/><rect x="40" y="192" width="8" height="8"/><rect x="48" width="8" height="56"/><rect x="48" y="64" width="8" height="8"/><rect x="48" y="80" width="8" height="8"/><rect x="48" y="96" width="8" height="8"/><rect x="48" y="112" width="8" height="8"/><rect x="48" y="128" width="8" height="8"/><rect x="48" y="144" width="8" height="56"/><rect x="56" y="72" width="8" height="32"/><rect x="56" y="112" width="8" height="8"/><rect x="56" y="128" width="8" height="8"/><rect x="64" y="16" width="8" height="48"/><rect x="64" y="96" width="8" height="8"/><rect x="64" y="120" width="8" height="24"/><rect x="64" y="152" width="8" height="32"/><rect x="64" y="192" width="8" height="8"/><rect x="72" y="16" width="8" height="8"/><rect x="72" y="32" width="8" height="16"/><rect x="72" y="56" width="8" height="8"/><rect x="72" y="80" width="8" height="24"/><rect x="72" y="112" width="8" height="8"/><rect x="72" y="128" width="8" height="8"/><rect x="72" y="152" width="8" height="24"/><rect x="72" y="184" width="8" height="8"/><rect x="80" y="8" width="8" height="16"/><rect x="80" y="48" width="8" height="48"/><rect x="80" y="104" width="8" height="24"/><rect x="80" y="144" width="8" height="8"/><rect x="80" y="160" width="8" height="8"/><rect x="80" y="184" width="8" height="16"/><rect x="88" y="16" width="8" height="32"/><rect x="88" y="64" width="8" height="40"/><rect x="88" y="144" width="8" height="24"/><rect x="96" y="32" width="8" height="8"/><rect x="96" y="48" width="8" height="48"/><rect x="96" y="104" width="8" height="8"/><rect x="96" y="120" width="8" height="16"/><rect x="96" y="144" width="8" height="8"/><rect x="96" y="168" width="8" height="8"/><rect x="96" y="184" width="8" height="16"/><rect x="104" width="8" height="8"/><rect x="104" y="24" width="8" height="8"/><rect x="104" y="40" width="8" height="8"/><rect x="104" y="64" width="8" height="8"/><rect x="104" y="104" width="8" height="24"/><rect x="104" y="168" width="8" height="24"/><rect x="112" y="16" width="8" height="24"/><rect x="112" y="48" width="8" height="40"/><rect x="112" y="112" width="8" height="8"/><rect x="112" y="128" width="8" height="8"/><rect x="112" y="152" width="8" height="8"/><rect x="112" y="168" width="8" height="16"/><rect x="112" y="192" width="8" height="8"/><rect x="120" y="8" width="8" height="16"/><rect x="120" y="40" width="8" height="8"/><rect x="120" y="80" width="8" height="8"/><rect x="120" y="96" width="8" height="8"/><rect x="120" y="112" width="8" height="32"/><rect x="120" y="160" width="8" height="8"/><rect x="120" y="184" width="8" height="8"/><rect x="128" width="8" height="8"/><rect x="128" y="16" width="8" height="8"/><rect x="128" y="32" width="8" height="32"/><rect x="128" y="96" width="8" height="72"/><rect x="128" y="184" width="8" height="8"/><rect x="136" y="112" width="8" height="8"/><rect x="136" y="128" width="8" height="8"/><rect x="136" y="160" width="8" height="16"/><rect x="144" width="8" height="56"/><rect x="144" y="64" width="8" height="8"/><rect x="144" y="80" width="8" height="8"/><rect x="144" y="96" width="8" height="8"/><rect x="144" y="128" width="8" height="8"/><rect x="144" y="144" width="8" height="8"/><rect x="144" y="160" width="8" height="16"/><rect x="144" y="184" width="8" height="8"/><rect x="152" width="8" height="8"/><rect x="152" y="48" width="8" height="8"/><rect x="152" y="64" width="8" height="24"/><rect x="152" y="104" width="8" height="8"/><rect x="152" y="120" width="8" height="16"/><rect x="152" y="160" width="8" height="8"/><rect x="152" y="176" width="8" height="24"/><rect x="160" width="8" height="8"/><rect x="160" y="16" width="8" height="24"/><rect x="160" y="48" width="8" height="8"/><rect x="160" y="64" width="8" height="8"/><rect x="160" y="96" width="8" height="8"/><rect x="160" y="112" width="8" height="8"/><rect x="160" y="128" width="8" height="48"/><rect x="160" y="184" width="8" height="16"/><rect x="168" width="8" height="8"/><rect x="168" y="16" width="8" height="24"/><rect x="168" y="48" width="8" height="8"/><rect x="168" y="64" width="8" height="8"/><rect x="168" y="80" width="8" height="8"/><rect x="168" y="104" width="8" height="24"/><rect x="168" y="136" width="8" height="32"/><rect x="168" y="184" width="8" height="16"/><rect x="176" width="8" height="8"/><rect x="176" y="16" width="8" height="24"/><rect x="176" y="48" width="8" height="8"/><rect x="176" y="64" width="8" height="8"/><rect x="176" y="96" width="8" height="8"/><rect x="176" y="128" width="8" height="24"/><rect x="176" y="160" width="8" height="24"/><rect x="176" y="192" width="8" height="8"/><rect x="184" width="8" height="8"/><rect x="184" y="48" width="8" height="8"/><rect x="184" y="72" width="8" height="16"/><rect x="184" y="96" width="8" height="24"/><rect x="184" y="144" width="8" height="8"/><rect x="184" y="160" width="8" height="16"/><rect x="184" y="192" width="8" height="8"/><rect x="192" width="8" height="56"/><rect x="192" y="80" width="8" height="24"/><rect x="192" y="112" width="8" height="16"/><rect x="192" y="144" width="8" height="56"/></g></svg>